<svg viewBox="0 0 128 128" fill="none" xmlns="http://www.w3.org/2000/svg">
<path d="M11 21.6667C11 15.8 15.8 11 21.6667 11H107C112.867 11 117.667 15.8 117.667 21.6667V85.6667C117.667 91.5333 112.867 96.3333 107 96.3333H32.3334L11 117.667V21.6667Z" fill="url(#paint0_linear_87_46)"/>
<path d="M35.728 72H41.888C43.008 72 43.624 71.328 43.904 70.656L45.92 66.176H61.152L63.168 70.6C63.672 71.664 64.12 72 65.128 72H71.344C72.184 72 72.632 71.272 72.296 70.544L54.768 32.856C54.6 32.52 54.208 32.24 53.816 32.24H53.256C52.864 32.24 52.472 32.52 52.304 32.856L34.776 70.544C34.44 71.272 34.888 72 35.728 72ZM49.28 58.56L53.48 49.32H53.536L57.792 58.56H49.28Z" fill="white"/>
<path d="M79.6941 70.936C79.6941 71.496 80.1981 72 80.7581 72H87.4781C88.0381 72 88.5421 71.496 88.5421 70.936V33.864C88.5421 33.304 88.0381 32.8 87.4781 32.8H80.7581C80.1981 32.8 79.6941 33.304 79.6941 33.864V70.936Z" fill="white"/>
<defs>
<linearGradient id="paint0_linear_87_46" x1="11" y1="11" x2="118" y2="118" gradientUnits="userSpaceOnUse">
<stop stop-color="#5CCCF7"/>
<stop offset="0.481405" stop-color="#7873F6"/>
<stop offset="1" stop-color="#D23DF6"/>
</linearGradient>
</defs>
</svg>
