<svg xmlns="http://www.w3.org/2000/svg" width="151" height="32" fill="none" viewBox="0 0 151 32">
  <path fill="url(#a)" d="M2.75 5.417c0-1.467 1.2-2.667 2.667-2.667H26.75c1.467 0 2.667 1.2 2.667 2.667v16c0 1.466-1.2 2.666-2.667 2.666H8.083L2.75 29.417v-24Z"/>
  <path fill="#fff" d="M8.932 18h1.54c.28 0 .434-.168.504-.336l.504-1.12h3.808l.504 1.106c.126.266.238.35.49.35h1.554c.21 0 .322-.182.238-.364l-4.382-9.422a.284.284 0 0 0-.238-.154h-.14a.284.284 0 0 0-.238.154l-4.382 9.422c-.084.182.028.364.238.364Zm3.388-3.36 1.05-2.31h.014l1.064 2.31H12.32Zm7.604 3.094c0 .14.125.266.265.266h1.68c.14 0 .267-.126.267-.266V8.466a.275.275 0 0 0-.267-.266h-1.68a.275.275 0 0 0-.265.266v9.268Z"/>
  <path fill="#000" d="M52.472 10.185c-.901.272-2.142.51-3.196.612v-.833c0-1.02.017-1.377.102-1.972h-2.516c.085.578.102 1.003.102 2.108v.85c-.119.017-.119.017-.34.017-.629.017-.68.017-.833.017-.901 0-1.683-.051-2.142-.153l.017 2.261c.187-.017.34-.017.425-.017h.289c.884.034.918.034 1.071.034.221 0 .68-.017 1.53-.034v2.329c-1.122.493-1.887.935-2.499 1.462-.969.85-1.513 1.819-1.513 2.686 0 .901.493 1.717 1.428 2.346.85.595 2.04.969 3.026.969.68 0 1.275-.255 1.564-.697.238-.34.289-.697.289-1.972v-3.196c1.054-.323 1.955-.459 2.941-.459 1.785 0 2.89.85 2.89 2.193 0 .969-.629 1.666-1.479 1.666-.782 0-1.122-.527-1.122-1.751 0-.272.017-.544.085-.935-.85.476-1.19.612-2.244.918-.017.153-.017.289-.017.357 0 2.448 1.139 3.808 3.196 3.808 2.329 0 4.046-1.717 4.046-4.063 0-1.377-.646-2.618-1.717-3.366-.918-.612-2.108-.918-3.604-.918-1.156 0-1.802.085-2.992.357v-1.853a36.024 36.024 0 0 0 2.091-.289c.714-.136.867-.153 1.207-.187l-.085-2.295Zm-5.491 9.639c0 .561-.068.697-.323.697-.272 0-.646-.136-.935-.323-.323-.204-.476-.425-.476-.663 0-.561.697-1.275 1.734-1.785v2.074Zm11.356-7.157c-.918-1.411-1.887-2.448-3.4-3.655l-1.87 1.326c1.36 1.088 2.55 2.448 3.383 3.825l1.887-1.496Zm3.876-4.318c.051.476.068.714.068 1.275 0 .51-.017 1.547-.068 3.893a197.094 197.094 0 0 0-.068 4.114c0 1.003.102 1.887.255 2.431.272.85.816 1.581 1.53 2.057.765.493 1.887.765 3.145.765 2.176 0 3.893-.731 5.202-2.176.884-.986 1.411-2.142 2.091-4.573-1.003-.442-1.377-.68-2.482-1.547-.153 1.258-.357 2.057-.714 2.958-.765 1.87-2.159 2.89-3.961 2.89-1.003 0-1.768-.306-2.125-.85-.323-.476-.408-1.054-.408-2.703 0-2.941.204-7.48.374-8.483l-2.839-.051Zm17.102 3.434c.272.51.629 1.479.935 2.516-2.091.646-2.091.646-2.465.714l.68 2.091c.459-.238 1.122-.476 2.346-.867.748 2.652 1.496 6.035 1.598 7.225l2.363-.51c-.136-.391-.204-.595-.425-1.496-.714-3.009-.748-3.111-1.054-4.233-.34-1.207-.34-1.207-.442-1.598.884-.255 1.36-.391 1.411-.408.901-.221 1.904-.357 2.55-.357.935 0 1.479.425 1.479 1.156 0 .833-.697 1.326-1.887 1.326-.765 0-1.309-.136-2.295-.561.289.952.34 1.309.391 2.261.952.255 1.513.34 2.159.34.986 0 1.887-.272 2.601-.799.85-.595 1.275-1.462 1.275-2.567 0-1.921-1.309-3.111-3.417-3.111-.221 0-.357 0-.612.034.017-1.241.034-1.666.085-2.125h-2.227c.051.34.068.612.085 2.38-.816.17-1.241.272-2.159.544-.085-.357-.102-.374-.17-.612l-.289-.884c-.136-.51-.187-.714-.238-1.054l-2.278.595Zm24.565-.51c.561.629.986 1.292 1.564 2.448l1.479-.731c-.578-1.105-.969-1.717-1.564-2.397l-1.479.68Zm2.023-.935c.527.612 1.02 1.394 1.53 2.38l1.445-.731c-.493-.952-.986-1.666-1.581-2.312l-1.394.663Zm-10.795 8.704c.17-.221.221-.289.425-.51a51.961 51.961 0 0 0 2.618-3.179c1.377-1.853 1.377-1.853 1.666-1.853.238 0 .408.102.714.442.527.612.527.612.714.833 1.156 1.343 1.156 1.343 1.53 1.768 1.649 1.819 3.536 3.74 4.947 4.998.306.272.374.34.561.544l1.258-2.839c-.612-.357-1.122-.765-2.108-1.7-1.819-1.683-3.179-3.128-4.93-5.185-.476-.561-.85-.952-1.105-1.156-.493-.391-1.02-.595-1.564-.595-.884 0-1.649.476-2.499 1.564-2.363 2.975-3.077 3.791-3.842 4.335l1.615 2.533Zm18.445-11.016c0 .272 0 .289-.034.595s-.102.986-.221 2.057a46.693 46.693 0 0 0-.238 4.539c0 .357.017.867.034 1.479.017.901.017.901.017.969 0 .068 0 .153-.017.272l2.431-.034v-.255c0-2.142.799-4.131 2.193-5.491.561-.544 1.088-.799 1.7-.799 1.343 0 2.091 1.275 2.091 3.553 0 3.774-1.972 5.491-6.732 5.865.578.884.816 1.36 1.173 2.465 1.36-.221 2.567-.544 3.502-.935 3.026-1.275 4.59-3.706 4.59-7.123 0-1.802-.272-3.009-.918-4.131-.799-1.377-2.023-2.125-3.434-2.125-1.003 0-1.989.408-2.805 1.173-.595.561-1.003 1.173-1.513 2.244.34-2.584.493-3.434.748-4.199l-2.567-.119ZM128.133 22h3.76l.879-3.096h4.599L138.25 22h3.76l-4.746-14.092h-4.385L128.133 22Zm6.904-11.025h.069l1.523 5.351h-3.115l1.523-5.351ZM145.368 22h3.584V7.908h-3.584V22Z"/>
  <defs>
    <linearGradient id="a" x1="2.75" x2="29.5" y1="2.75" y2="29.5" gradientUnits="userSpaceOnUse">
      <stop stop-color="#5CCCF7"/>
      <stop offset=".481" stop-color="#7873F6"/>
      <stop offset="1" stop-color="#D23DF6"/>
    </linearGradient>
  </defs>
</svg>
